<svg xmlns="http://www.w3.org/2000/svg" width="4625.008742144211" height="2915.0641352581283" viewBox="-14744.310407642533 3013.9736005909285 4625.008742144211 2915.0641352581283" style="background-color:rgba(34, 34, 34, 1)"><rect x="-11661.1" y="4957.0" width="92.4" height="76.0" rx="8" ry="8" fill="rgba(0, 0, 0, 0)" stroke="rgba(229, 231, 235, 1)" stroke-width="2"></rect><text x="-11647.1" y="5009.0" fill="rgba(255, 255, 255, 1)" font-size="32" text-anchor="start" font-family="-apple-system, BlinkMacSystemFont, MiSans, system-ui, sans-serif">root</text><rect x="-11320.9" y="4957.0" width="92.0" height="76.0" rx="8" ry="8" fill="rgba(0, 0, 0, 0)" stroke="rgba(229, 231, 235, 1)" stroke-width="2"></rect><text x="-11306.9" y="5009.0" fill="rgba(255, 255, 255, 1)" font-size="32" text-anchor="start" font-family="-apple-system, BlinkMacSystemFont, MiSans, system-ui, sans-serif">基础</text><rect x="-11031.6" y="4826.2" width="156.0" height="76.0" rx="8" ry="8" fill="rgba(0, 0, 0, 0)" stroke="rgba(229, 231, 235, 1)" stroke-width="2"></rect><text x="-11017.6" y="4878.2" fill="rgba(255, 255, 255, 1)" font-size="32" text-anchor="start" font-family="-apple-system, BlinkMacSystemFont, MiSans, system-ui, sans-serif">防御建筑</text><rect x="-10821.8" y="4690.9" width="156.0" height="76.0" rx="8" ry="8" fill="rgba(0, 0, 0, 0)" stroke="rgba(229, 231, 235, 1)" stroke-width="2"></rect><text x="-10807.8" y="4742.9" fill="rgba(255, 255, 255, 1)" font-size="32" text-anchor="start" font-family="-apple-system, BlinkMacSystemFont, MiSans, system-ui, sans-serif">详细信息</text><rect x="-11031.6" y="4957.0" width="156.0" height="76.0" rx="8" ry="8" fill="rgba(0, 0, 0, 0)" stroke="rgba(229, 231, 235, 1)" stroke-width="2"></rect><text x="-11017.6" y="5009.0" fill="rgba(255, 255, 255, 1)" font-size="32" text-anchor="start" font-family="-apple-system, BlinkMacSystemFont, MiSans, system-ui, sans-serif">生产建筑</text><rect x="-10827.2" y="5356.6" width="156.0" height="76.0" rx="8" ry="8" fill="rgba(0, 0, 0, 0)" stroke="rgba(229, 231, 235, 1)" stroke-width="2"></rect><text x="-10813.2" y="5408.6" fill="rgba(255, 255, 255, 1)" font-size="32" text-anchor="start" font-family="-apple-system, BlinkMacSystemFont, MiSans, system-ui, sans-serif">详细信息</text><rect x="-10999.6" y="5083.4" width="92.0" height="76.0" rx="8" ry="8" fill="rgba(0, 0, 0, 0)" stroke="rgba(229, 231, 235, 1)" stroke-width="2"></rect><text x="-10985.6" y="5135.4" fill="rgba(255, 255, 255, 1)" font-size="32" text-anchor="start" font-family="-apple-system, BlinkMacSystemFont, MiSans, system-ui, sans-serif">物品</text><rect x="-10827.2" y="4826.2" width="156.0" height="76.0" rx="8" ry="8" fill="rgba(0, 0, 0, 0)" stroke="rgba(229, 231, 235, 1)" stroke-width="2"></rect><text x="-10813.2" y="4878.2" fill="rgba(255, 255, 255, 1)" font-size="32" text-anchor="start" font-family="-apple-system, BlinkMacSystemFont, MiSans, system-ui, sans-serif">详细信息</text><rect x="-10999.6" y="5356.6" width="92.0" height="76.0" rx="8" ry="8" fill="rgba(0, 0, 0, 0)" stroke="rgba(229, 231, 235, 1)" stroke-width="2"></rect><text x="-10985.6" y="5408.6" fill="rgba(255, 255, 255, 1)" font-size="32" text-anchor="start" font-family="-apple-system, BlinkMacSystemFont, MiSans, system-ui, sans-serif">单位</text><rect x="-10827.2" y="4957.0" width="156.0" height="76.0" rx="8" ry="8" fill="rgba(0, 0, 0, 0)" stroke="rgba(229, 231, 235, 1)" stroke-width="2"></rect><text x="-10813.2" y="5009.0" fill="rgba(255, 255, 255, 1)" font-size="32" text-anchor="start" font-family="-apple-system, BlinkMacSystemFont, MiSans, system-ui, sans-serif">详细信息</text><rect x="-10999.6" y="5217.7" width="92.0" height="76.0" rx="8" ry="8" fill="rgba(0, 0, 0, 0)" stroke="rgba(229, 231, 235, 1)" stroke-width="2"></rect><text x="-10985.6" y="5269.7" fill="rgba(255, 255, 255, 1)" font-size="32" text-anchor="start" font-family="-apple-system, BlinkMacSystemFont, MiSans, system-ui, sans-serif">地图</text><rect x="-10827.2" y="5083.4" width="156.0" height="76.0" rx="8" ry="8" fill="rgba(0, 0, 0, 0)" stroke="rgba(229, 231, 235, 1)" stroke-width="2"></rect><text x="-10813.2" y="5135.4" fill="rgba(255, 255, 255, 1)" font-size="32" text-anchor="start" font-family="-apple-system, BlinkMacSystemFont, MiSans, system-ui, sans-serif">详细信息</text><rect x="-11031.6" y="4699.1" width="156.0" height="76.0" rx="8" ry="8" fill="rgba(0, 0, 0, 0)" stroke="rgba(229, 231, 235, 1)" stroke-width="2"></rect><text x="-11017.6" y="4751.1" fill="rgba(255, 255, 255, 1)" font-size="32" text-anchor="start" font-family="-apple-system, BlinkMacSystemFont, MiSans, system-ui, sans-serif">各种属性</text><rect x="-10827.2" y="5217.7" width="156.0" height="76.0" rx="8" ry="8" fill="rgba(0, 0, 0, 0)" stroke="rgba(229, 231, 235, 1)" stroke-width="2"></rect><text x="-10813.2" y="5269.7" fill="rgba(255, 255, 255, 1)" font-size="32" text-anchor="start" font-family="-apple-system, BlinkMacSystemFont, MiSans, system-ui, sans-serif">详细信息</text><rect x="-11660.7" y="5604.2" width="92.0" height="76.0" rx="8" ry="8" fill="rgba(0, 0, 0, 0)" stroke="rgba(229, 231, 235, 1)" stroke-width="2"></rect><text x="-11646.7" y="5656.2" fill="rgba(255, 255, 255, 1)" font-size="32" text-anchor="start" font-family="-apple-system, BlinkMacSystemFont, MiSans, system-ui, sans-serif">概览</text><rect x="-11320.9" y="5604.2" width="92.0" height="76.0" rx="8" ry="8" fill="rgba(0, 0, 0, 0)" stroke="rgba(229, 231, 235, 1)" stroke-width="2"></rect><text x="-11306.9" y="5656.2" fill="rgba(255, 255, 255, 1)" font-size="32" text-anchor="start" font-family="-apple-system, BlinkMacSystemFont, MiSans, system-ui, sans-serif">新闻</text><rect x="-11352.9" y="5719.3" width="156.0" height="76.0" rx="8" ry="8" fill="rgba(0, 0, 0, 0)" stroke="rgba(229, 231, 235, 1)" stroke-width="2"></rect><text x="-11338.9" y="5771.3" fill="rgba(255, 255, 255, 1)" font-size="32" text-anchor="start" font-family="-apple-system, BlinkMacSystemFont, MiSans, system-ui, sans-serif">更新日志</text><rect x="-11384.0" y="5823.0" width="218.4" height="76.0" rx="8" ry="8" fill="rgba(0, 0, 0, 0)" stroke="rgba(229, 231, 235, 1)" stroke-width="2"></rect><text x="-11370.0" y="5875.0" fill="rgba(255, 255, 255, 1)" font-size="32" text-anchor="start" font-family="-apple-system, BlinkMacSystemFont, MiSans, system-ui, sans-serif">mdt更新日志</text><rect x="-11063.6" y="5719.3" width="156.0" height="76.0" rx="8" ry="8" fill="rgba(0, 0, 0, 0)" stroke="rgba(229, 231, 235, 1)" stroke-width="2"></rect><text x="-11049.6" y="5771.3" fill="rgba(255, 255, 255, 1)" font-size="32" text-anchor="start" font-family="-apple-system, BlinkMacSystemFont, MiSans, system-ui, sans-serif">中英双语</text><rect x="-11975.8" y="4957.0" width="92.0" height="76.0" rx="8" ry="8" fill="rgba(0, 0, 0, 0)" stroke="rgba(229, 231, 235, 1)" stroke-width="2"></rect><text x="-11961.8" y="5009.0" fill="rgba(255, 255, 255, 1)" font-size="32" text-anchor="start" font-family="-apple-system, BlinkMacSystemFont, MiSans, system-ui, sans-serif">进阶</text><rect x="-12604.4" y="5083.4" width="217.5" height="76.0" rx="8" ry="8" fill="rgba(0, 0, 0, 0)" stroke="rgba(229, 231, 235, 1)" stroke-width="2"></rect><text x="-12590.4" y="5135.4" fill="rgba(255, 255, 255, 1)" font-size="32" text-anchor="start" font-family="-apple-system, BlinkMacSystemFont, MiSans, system-ui, sans-serif">服务端server</text><rect x="-12835.9" y="4657.0" width="156.0" height="76.0" rx="8" ry="8" fill="rgba(0, 0, 0, 0)" stroke="rgba(229, 231, 235, 1)" stroke-width="2"></rect><text x="-12821.9" y="4709.0" fill="rgba(255, 255, 255, 1)" font-size="32" text-anchor="start" font-family="-apple-system, BlinkMacSystemFont, MiSans, system-ui, sans-serif">详细信息</text><rect x="-12557.6" y="5257.0" width="124.0" height="76.0" rx="8" ry="8" fill="rgba(0, 0, 0, 0)" stroke="rgba(229, 231, 235, 1)" stroke-width="2"></rect><text x="-12543.6" y="5309.0" fill="rgba(255, 255, 255, 1)" font-size="32" text-anchor="start" font-family="-apple-system, BlinkMacSystemFont, MiSans, system-ui, sans-serif">客户端</text><rect x="-12835.9" y="4557.0" width="156.0" height="76.0" rx="8" ry="8" fill="rgba(0, 0, 0, 0)" stroke="rgba(229, 231, 235, 1)" stroke-width="2"></rect><text x="-12821.9" y="4609.0" fill="rgba(255, 255, 255, 1)" font-size="32" text-anchor="start" font-family="-apple-system, BlinkMacSystemFont, MiSans, system-ui, sans-serif">详细信息</text><rect x="-12559.1" y="4557.0" width="172.3" height="76.0" rx="8" ry="8" fill="rgba(0, 0, 0, 0)" stroke="rgba(229, 231, 235, 1)" stroke-width="2"></rect><text x="-12545.1" y="4609.0" fill="rgba(255, 255, 255, 1)" font-size="32" text-anchor="start" font-family="-apple-system, BlinkMacSystemFont, MiSans, system-ui, sans-serif">mod 开发</text><rect x="-12835.9" y="5083.4" width="156.0" height="76.0" rx="8" ry="8" fill="rgba(0, 0, 0, 0)" stroke="rgba(229, 231, 235, 1)" stroke-width="2"></rect><text x="-12821.9" y="5135.4" fill="rgba(255, 255, 255, 1)" font-size="32" text-anchor="start" font-family="-apple-system, BlinkMacSystemFont, MiSans, system-ui, sans-serif">详细信息</text><rect x="-12591.0" y="4657.0" width="235.9" height="76.0" rx="8" ry="8" fill="rgba(0, 0, 0, 0)" stroke="rgba(229, 231, 235, 1)" stroke-width="2"></rect><text x="-12577.0" y="4709.0" fill="rgba(255, 255, 255, 1)" font-size="32" text-anchor="start" font-family="-apple-system, BlinkMacSystemFont, MiSans, system-ui, sans-serif">sever插件开发</text><rect x="-12835.9" y="5257.0" width="156.0" height="76.0" rx="8" ry="8" fill="rgba(0, 0, 0, 0)" stroke="rgba(229, 231, 235, 1)" stroke-width="2"></rect><text x="-12821.9" y="5309.0" fill="rgba(255, 255, 255, 1)" font-size="32" text-anchor="start" font-family="-apple-system, BlinkMacSystemFont, MiSans, system-ui, sans-serif">详细信息</text><rect x="-12110.0" y="4826.2" width="92.0" height="76.0" rx="8" ry="8" fill="rgba(0, 0, 0, 0)" stroke="rgba(229, 231, 235, 1)" stroke-width="2"></rect><text x="-12096.0" y="4878.2" fill="rgba(255, 255, 255, 1)" font-size="32" text-anchor="start" font-family="-apple-system, BlinkMacSystemFont, MiSans, system-ui, sans-serif">开发</text><rect x="-12110.0" y="5083.4" width="92.0" height="76.0" rx="8" ry="8" fill="rgba(0, 0, 0, 0)" stroke="rgba(229, 231, 235, 1)" stroke-width="2"></rect><text x="-12096.0" y="5135.4" fill="rgba(255, 255, 255, 1)" font-size="32" text-anchor="start" font-family="-apple-system, BlinkMacSystemFont, MiSans, system-ui, sans-serif">基础</text><rect x="-11690.7" y="4757.0" width="151.7" height="76.0" rx="8" ry="8" fill="rgba(0, 0, 0, 0)" stroke="rgba(229, 231, 235, 1)" stroke-width="2"></rect><text x="-11676.7" y="4809.0" fill="rgba(255, 255, 255, 1)" font-size="32" text-anchor="start" font-family="-apple-system, BlinkMacSystemFont, MiSans, system-ui, sans-serif">wiki首页</text><rect x="-12038.5" y="4437.8" width="124.0" height="76.0" rx="8" ry="8" fill="rgba(0, 0, 0, 0)" stroke="rgba(229, 231, 235, 1)" stroke-width="2"></rect><text x="-12024.5" y="4489.8" fill="rgba(255, 255, 255, 1)" font-size="32" text-anchor="start" font-family="-apple-system, BlinkMacSystemFont, MiSans, system-ui, sans-serif">根目录</text><rect x="-12321.3" y="3815.2" width="98.1" height="76.0" rx="8" ry="8" fill="rgba(0, 0, 0, 0)" stroke="rgba(229, 231, 235, 1)" stroke-width="2"></rect><text x="-12307.3" y="3867.2" fill="rgba(255, 255, 255, 1)" font-size="32" text-anchor="start" font-family="-apple-system, BlinkMacSystemFont, MiSans, system-ui, sans-serif">html</text><rect x="-11523.4" y="3815.2" width="51.4" height="76.0" rx="8" ry="8" fill="rgba(0, 0, 0, 0)" stroke="rgba(229, 231, 235, 1)" stroke-width="2"></rect><text x="-11509.4" y="3867.2" fill="rgba(255, 255, 255, 1)" font-size="32" text-anchor="start" font-family="-apple-system, BlinkMacSystemFont, MiSans, system-ui, sans-serif">js</text><rect x="-10601.2" y="3815.2" width="73.7" height="76.0" rx="8" ry="8" fill="rgba(0, 0, 0, 0)" stroke="rgba(229, 231, 235, 1)" stroke-width="2"></rect><text x="-10587.2" y="3867.2" fill="rgba(255, 255, 255, 1)" font-size="32" text-anchor="start" font-family="-apple-system, BlinkMacSystemFont, MiSans, system-ui, sans-serif">css</text><rect x="-13345.9" y="3815.2" width="134.6" height="76.0" rx="8" ry="8" fill="rgba(0, 0, 0, 0)" stroke="rgba(229, 231, 235, 1)" stroke-width="2"></rect><text x="-13331.9" y="3867.2" fill="rgba(255, 255, 255, 1)" font-size="32" text-anchor="start" font-family="-apple-system, BlinkMacSystemFont, MiSans, system-ui, sans-serif">src资源</text><rect x="-13927.8" y="4914.7" width="155.9" height="76.0" rx="8" ry="8" fill="rgba(0, 0, 0, 0)" stroke="rgba(229, 231, 235, 1)" stroke-width="2"></rect><text x="-13913.8" y="4966.7" fill="rgba(255, 255, 255, 1)" font-size="32" text-anchor="start" font-family="-apple-system, BlinkMacSystemFont, MiSans, system-ui, sans-serif">E-planet</text><rect x="-13927.8" y="4319.6" width="156.8" height="76.0" rx="8" ry="8" fill="rgba(0, 0, 0, 0)" stroke="rgba(229, 231, 235, 1)" stroke-width="2"></rect><text x="-13913.8" y="4371.6" fill="rgba(255, 255, 255, 1)" font-size="32" text-anchor="start" font-family="-apple-system, BlinkMacSystemFont, MiSans, system-ui, sans-serif">S-planet</text><rect x="-13921.0" y="3683.3" width="139.3" height="76.0" rx="8" ry="8" fill="rgba(0, 0, 0, 0)" stroke="rgba(229, 231, 235, 1)" stroke-width="2"></rect><text x="-13907.0" y="3735.3" fill="rgba(255, 255, 255, 1)" font-size="32" text-anchor="start" font-family="-apple-system, BlinkMacSystemFont, MiSans, system-ui, sans-serif">planets</text><rect x="-13895.0" y="3815.2" width="122.8" height="76.0" rx="8" ry="8" fill="rgba(0, 0, 0, 0)" stroke="rgba(229, 231, 235, 1)" stroke-width="2"></rect><text x="-13881.0" y="3867.2" fill="rgba(255, 255, 255, 1)" font-size="32" text-anchor="start" font-family="-apple-system, BlinkMacSystemFont, MiSans, system-ui, sans-serif">image</text><rect x="-13952.2" y="3557.5" width="213.2" height="76.0" rx="8" ry="8" fill="rgba(0, 0, 0, 0)" stroke="rgba(229, 231, 235, 1)" stroke-width="2"></rect><text x="-13938.2" y="3609.5" fill="rgba(255, 255, 255, 1)" font-size="32" text-anchor="start" font-family="-apple-system, BlinkMacSystemFont, MiSans, system-ui, sans-serif">Take a piece</text><rect x="-13928.1" y="3436.8" width="153.4" height="76.0" rx="8" ry="8" fill="rgba(0, 0, 0, 0)" stroke="rgba(229, 231, 235, 1)" stroke-width="2"></rect><text x="-13914.1" y="3488.8" fill="rgba(255, 255, 255, 1)" font-size="32" text-anchor="start" font-family="-apple-system, BlinkMacSystemFont, MiSans, system-ui, sans-serif">versions</text><rect x="-13879.1" y="3951.3" width="91.1" height="76.0" rx="8" ry="8" fill="rgba(0, 0, 0, 0)" stroke="rgba(229, 231, 235, 1)" stroke-width="2"></rect><text x="-13865.1" y="4003.3" fill="rgba(255, 255, 255, 1)" font-size="32" text-anchor="start" font-family="-apple-system, BlinkMacSystemFont, MiSans, system-ui, sans-serif">font</text><rect x="-12423.9" y="3044.0" width="200.8" height="76.0" rx="8" ry="8" fill="rgba(0, 0, 0, 0)" stroke="rgba(229, 231, 235, 1)" stroke-width="2"></rect><text x="-12409.9" y="3096.0" fill="rgba(255, 255, 255, 1)" font-size="32" text-anchor="start" font-family="-apple-system, BlinkMacSystemFont, MiSans, system-ui, sans-serif">About.html</text><rect x="-12174.4" y="3044.0" width="230.3" height="76.0" rx="8" ry="8" fill="rgba(0, 0, 0, 0)" stroke="rgba(229, 231, 235, 1)" stroke-width="2"></rect><text x="-12160.4" y="3096.0" fill="rgba(255, 255, 255, 1)" font-size="32" text-anchor="start" font-family="-apple-system, BlinkMacSystemFont, MiSans, system-ui, sans-serif">Defense.html</text><rect x="-12676.0" y="3044.0" width="218.1" height="76.0" rx="8" ry="8" fill="rgba(0, 0, 0, 0)" stroke="rgba(229, 231, 235, 1)" stroke-width="2"></rect><text x="-12662.0" y="3096.0" fill="rgba(255, 255, 255, 1)" font-size="32" text-anchor="start" font-family="-apple-system, BlinkMacSystemFont, MiSans, system-ui, sans-serif">Update.html</text><rect x="-11810.9" y="3497.1" width="143.0" height="76.0" rx="8" ry="8" fill="rgba(0, 0, 0, 0)" stroke="rgba(229, 231, 235, 1)" stroke-width="2"></rect><text x="-11796.9" y="3549.1" fill="rgba(255, 255, 255, 1)" font-size="32" text-anchor="start" font-family="-apple-system, BlinkMacSystemFont, MiSans, system-ui, sans-serif">script.js</text><rect x="-10957.7" y="3044.0" width="176.3" height="76.0" rx="8" ry="8" fill="rgba(0, 0, 0, 0)" stroke="rgba(229, 231, 235, 1)" stroke-width="2"></rect><text x="-10943.7" y="3096.0" fill="rgba(255, 255, 255, 1)" font-size="32" text-anchor="start" font-family="-apple-system, BlinkMacSystemFont, MiSans, system-ui, sans-serif">About.css</text><rect x="-10552.5" y="3044.0" width="205.8" height="76.0" rx="8" ry="8" fill="rgba(0, 0, 0, 0)" stroke="rgba(229, 231, 235, 1)" stroke-width="2"></rect><text x="-10538.5" y="3096.0" fill="rgba(255, 255, 255, 1)" font-size="32" text-anchor="start" font-family="-apple-system, BlinkMacSystemFont, MiSans, system-ui, sans-serif">Defense.css</text><rect x="-10301.0" y="3044.0" width="151.7" height="76.0" rx="8" ry="8" fill="rgba(0, 0, 0, 0)" stroke="rgba(229, 231, 235, 1)" stroke-width="2"></rect><text x="-10287.0" y="3096.0" fill="rgba(255, 255, 255, 1)" font-size="32" text-anchor="start" font-family="-apple-system, BlinkMacSystemFont, MiSans, system-ui, sans-serif">style.css</text><rect x="-10744.6" y="3044.0" width="145.4" height="76.0" rx="8" ry="8" fill="rgba(0, 0, 0, 0)" stroke="rgba(229, 231, 235, 1)" stroke-width="2"></rect><text x="-10730.6" y="3096.0" fill="rgba(255, 255, 255, 1)" font-size="32" text-anchor="start" font-family="-apple-system, BlinkMacSystemFont, MiSans, system-ui, sans-serif">Unit.css</text><rect x="-14714.3" y="4815.7" width="152.5" height="76.0" rx="8" ry="8" fill="rgba(0, 0, 0, 0)" stroke="rgba(229, 231, 235, 1)" stroke-width="2"></rect><text x="-14700.3" y="4867.7" fill="rgba(255, 255, 255, 1)" font-size="32" text-anchor="start" font-family="-apple-system, BlinkMacSystemFont, MiSans, system-ui, sans-serif">Defense</text><rect x="-14714.3" y="4235.1" width="152.5" height="76.0" rx="8" ry="8" fill="rgba(0, 0, 0, 0)" stroke="rgba(229, 231, 235, 1)" stroke-width="2"></rect><text x="-14700.3" y="4287.1" fill="rgba(255, 255, 255, 1)" font-size="32" text-anchor="start" font-family="-apple-system, BlinkMacSystemFont, MiSans, system-ui, sans-serif">Defense</text><rect x="-14693.6" y="4914.7" width="111.1" height="76.0" rx="8" ry="8" fill="rgba(0, 0, 0, 0)" stroke="rgba(229, 231, 235, 1)" stroke-width="2"></rect><text x="-14679.6" y="4966.7" fill="rgba(255, 255, 255, 1)" font-size="32" text-anchor="start" font-family="-apple-system, BlinkMacSystemFont, MiSans, system-ui, sans-serif">items</text><rect x="-14693.6" y="4319.6" width="111.1" height="76.0" rx="8" ry="8" fill="rgba(0, 0, 0, 0)" stroke="rgba(229, 231, 235, 1)" stroke-width="2"></rect><text x="-14679.6" y="4371.6" fill="rgba(255, 255, 255, 1)" font-size="32" text-anchor="start" font-family="-apple-system, BlinkMacSystemFont, MiSans, system-ui, sans-serif">items</text><rect x="-14728.9" y="4136.5" width="181.7" height="76.0" rx="8" ry="8" fill="rgba(0, 0, 0, 0)" stroke="rgba(229, 231, 235, 1)" stroke-width="2"></rect><text x="-14714.9" y="4188.5" fill="rgba(255, 255, 255, 1)" font-size="32" text-anchor="start" font-family="-apple-system, BlinkMacSystemFont, MiSans, system-ui, sans-serif">Resources</text><rect x="-14728.9" y="4717.1" width="181.7" height="76.0" rx="8" ry="8" fill="rgba(0, 0, 0, 0)" stroke="rgba(229, 231, 235, 1)" stroke-width="2"></rect><text x="-14714.9" y="4769.1" fill="rgba(255, 255, 255, 1)" font-size="32" text-anchor="start" font-family="-apple-system, BlinkMacSystemFont, MiSans, system-ui, sans-serif">Resources</text><rect x="-14684.1" y="4403.9" width="92.0" height="76.0" rx="8" ry="8" fill="rgba(0, 0, 0, 0)" stroke="rgba(229, 231, 235, 1)" stroke-width="2"></rect><text x="-14670.1" y="4455.9" fill="rgba(255, 255, 255, 1)" font-size="32" text-anchor="start" font-family="-apple-system, BlinkMacSystemFont, MiSans, system-ui, sans-serif">Unit</text><rect x="-14684.1" y="5004.1" width="92.0" height="76.0" rx="8" ry="8" fill="rgba(0, 0, 0, 0)" stroke="rgba(229, 231, 235, 1)" stroke-width="2"></rect><text x="-14670.1" y="5056.1" fill="rgba(255, 255, 255, 1)" font-size="32" text-anchor="start" font-family="-apple-system, BlinkMacSystemFont, MiSans, system-ui, sans-serif">Unit</text><rect x="-13896.5" y="3312.7" width="90.3" height="76.0" rx="8" ry="8" fill="rgba(0, 0, 0, 0)" stroke="rgba(229, 231, 235, 1)" stroke-width="2"></rect><text x="-13882.5" y="3364.7" fill="rgba(255, 255, 255, 1)" font-size="32" text-anchor="start" font-family="-apple-system, BlinkMacSystemFont, MiSans, system-ui, sans-serif">buff</text><line x1="-11661.1" y1="4995.0" x2="-11883.8" y2="4995.0" stroke="rgba(229, 231, 235, 1)" stroke-width="2"></line><polygon points="-11883.8,4995.0 -11869.3,4998.9 -11876.3,4995.0 -11869.3,4991.1" fill="rgba(229, 231, 235, 1)" stroke="rgba(229, 231, 235, 1)"></polygon><line x1="-11930.5" y1="5033.0" x2="-12018.0" y2="5120.5" stroke="rgba(229, 231, 235, 1)" stroke-width="2"></line><polygon points="-12018.0,5120.5 -12004.8,5113.4 -12012.5,5115.4 -12010.1,5107.8" fill="rgba(229, 231, 235, 1)" stroke="rgba(229, 231, 235, 1)"></polygon><line x1="-11975.8" y1="4994.0" x2="-12063.3" y2="4902.2" stroke="rgba(229, 231, 235, 1)" stroke-width="2"></line><polygon points="-12063.3,4902.2 -12055.6,4915.1 -12057.9,4907.4 -12050.2,4909.5" fill="rgba(229, 231, 235, 1)" stroke="rgba(229, 231, 235, 1)"></polygon><line x1="-12110.0" y1="4863.8" x2="-12391.3" y2="4733.0" stroke="rgba(229, 231, 235, 1)" stroke-width="2"></line><polygon points="-12391.3,4733.0 -12379.4,4742.1 -12384.3,4735.9 -12376.4,4735.0" fill="rgba(229, 231, 235, 1)" stroke="rgba(229, 231, 235, 1)"></polygon><line x1="-12065.1" y1="4826.2" x2="-12386.9" y2="4614.4" stroke="rgba(229, 231, 235, 1)" stroke-width="2"></line><polygon points="-12386.9,4614.4 -12376.9,4625.7 -12380.6,4618.6 -12372.6,4619.2" fill="rgba(229, 231, 235, 1)" stroke="rgba(229, 231, 235, 1)"></polygon><line x1="-12559.1" y1="4595.0" x2="-12679.9" y2="4595.0" stroke="rgba(229, 231, 235, 1)" stroke-width="2"></line><polygon points="-12679.9,4595.0 -12665.4,4598.9 -12672.4,4595.0 -12665.4,4591.1" fill="rgba(229, 231, 235, 1)" stroke="rgba(229, 231, 235, 1)"></polygon><line x1="-12591.0" y1="4695.0" x2="-12679.9" y2="4695.0" stroke="rgba(229, 231, 235, 1)" stroke-width="2"></line><polygon points="-12679.9,4695.0 -12665.4,4698.9 -12672.4,4695.0 -12665.4,4691.1" fill="rgba(229, 231, 235, 1)" stroke="rgba(229, 231, 235, 1)"></polygon><line x1="-12604.4" y1="5121.4" x2="-12679.9" y2="5121.4" stroke="rgba(229, 231, 235, 1)" stroke-width="2"></line><polygon points="-12679.9,5121.4 -12665.4,5125.3 -12672.4,5121.4 -12665.4,5117.6" fill="rgba(229, 231, 235, 1)" stroke="rgba(229, 231, 235, 1)"></polygon><line x1="-12110.0" y1="5121.4" x2="-12386.9" y2="5121.4" stroke="rgba(229, 231, 235, 1)" stroke-width="2"></line><polygon points="-12386.9,5121.4 -12372.4,5125.3 -12379.4,5121.4 -12372.4,5117.6" fill="rgba(229, 231, 235, 1)" stroke="rgba(229, 231, 235, 1)"></polygon><line x1="-12557.6" y1="5295.0" x2="-12679.9" y2="5295.0" stroke="rgba(229, 231, 235, 1)" stroke-width="2"></line><polygon points="-12679.9,5295.0 -12665.4,5298.9 -12672.4,5295.0 -12665.4,5291.1" fill="rgba(229, 231, 235, 1)" stroke="rgba(229, 231, 235, 1)"></polygon><line x1="-12110.0" y1="5121.9" x2="-12433.6" y2="5294.3" stroke="rgba(229, 231, 235, 1)" stroke-width="2"></line><polygon points="-12433.6,5294.3 -12418.8,5292.5 -12426.7,5291.5 -12421.7,5285.3" fill="rgba(229, 231, 235, 1)" stroke="rgba(229, 231, 235, 1)"></polygon><line x1="-11568.7" y1="4995.0" x2="-11320.9" y2="4995.0" stroke="rgba(229, 231, 235, 1)" stroke-width="2"></line><polygon points="-11320.9,4995.0 -11335.3,4991.1 -11328.4,4995.0 -11335.3,4998.9" fill="rgba(229, 231, 235, 1)" stroke="rgba(229, 231, 235, 1)"></polygon><line x1="-11228.9" y1="4995.0" x2="-11031.6" y2="4995.0" stroke="rgba(229, 231, 235, 1)" stroke-width="2"></line><polygon points="-11031.6,4995.0 -11046.1,4991.1 -11039.1,4995.0 -11046.1,4998.9" fill="rgba(229, 231, 235, 1)" stroke="rgba(229, 231, 235, 1)"></polygon><line x1="-11228.9" y1="4994.4" x2="-11031.6" y2="4865.2" stroke="rgba(229, 231, 235, 1)" stroke-width="2"></line><polygon points="-11031.6,4865.2 -11046.4,4867.1 -11038.5,4868.0 -11043.5,4874.3" fill="rgba(229, 231, 235, 1)" stroke="rgba(229, 231, 235, 1)"></polygon><line x1="-11274.0" y1="4957.0" x2="-11031.6" y2="4738.5" stroke="rgba(229, 231, 235, 1)" stroke-width="2"></line><polygon points="-11031.6,4738.5 -11045.3,4744.6 -11037.4,4743.2 -11040.4,4750.6" fill="rgba(229, 231, 235, 1)" stroke="rgba(229, 231, 235, 1)"></polygon><line x1="-10875.6" y1="4864.2" x2="-10827.2" y2="4864.2" stroke="rgba(229, 231, 235, 1)" stroke-width="2"></line><polygon points="-10827.2,4864.2 -10841.7,4860.3 -10834.7,4864.2 -10841.7,4868.1" fill="rgba(229, 231, 235, 1)" stroke="rgba(229, 231, 235, 1)"></polygon><line x1="-10875.6" y1="4736.9" x2="-10821.8" y2="4729.1" stroke="rgba(229, 231, 235, 1)" stroke-width="2"></line><polygon points="-10821.8,4729.1 -10836.5,4725.8 -10829.3,4729.4 -10836.2,4733.5" fill="rgba(229, 231, 235, 1)" stroke="rgba(229, 231, 235, 1)"></polygon><line x1="-10875.6" y1="4995.0" x2="-10827.2" y2="4995.0" stroke="rgba(229, 231, 235, 1)" stroke-width="2"></line><polygon points="-10827.2,4995.0 -10841.7,4991.1 -10834.7,4995.0 -10841.7,4998.9" fill="rgba(229, 231, 235, 1)" stroke="rgba(229, 231, 235, 1)"></polygon><line x1="-10907.6" y1="5121.4" x2="-10827.2" y2="5121.4" stroke="rgba(229, 231, 235, 1)" stroke-width="2"></line><polygon points="-10827.2,5121.4 -10841.7,5117.6 -10834.7,5121.4 -10841.7,5125.3" fill="rgba(229, 231, 235, 1)" stroke="rgba(229, 231, 235, 1)"></polygon><line x1="-10907.6" y1="5255.7" x2="-10827.2" y2="5255.7" stroke="rgba(229, 231, 235, 1)" stroke-width="2"></line><polygon points="-10827.2,5255.7 -10841.7,5251.8 -10834.7,5255.7 -10841.7,5259.6" fill="rgba(229, 231, 235, 1)" stroke="rgba(229, 231, 235, 1)"></polygon><line x1="-10907.6" y1="5394.6" x2="-10827.2" y2="5394.6" stroke="rgba(229, 231, 235, 1)" stroke-width="2"></line><polygon points="-10827.2,5394.6 -10841.7,5390.7 -10834.7,5394.6 -10841.7,5398.5" fill="rgba(229, 231, 235, 1)" stroke="rgba(229, 231, 235, 1)"></polygon><line x1="-11228.9" y1="4995.5" x2="-10999.6" y2="5120.9" stroke="rgba(229, 231, 235, 1)" stroke-width="2"></line><polygon points="-10999.6,5120.9 -11011.6,5112.0 -11006.5,5118.2 -11014.5,5119.2" fill="rgba(229, 231, 235, 1)" stroke="rgba(229, 231, 235, 1)"></polygon><line x1="-11228.9" y1="4995.7" x2="-10954.5" y2="5217.7" stroke="rgba(229, 231, 235, 1)" stroke-width="2"></line><polygon points="-10954.5,5217.7 -10963.3,5205.6 -10960.3,5213.0 -10968.2,5211.6" fill="rgba(229, 231, 235, 1)" stroke="rgba(229, 231, 235, 1)"></polygon><line x1="-11274.1" y1="5033.0" x2="-10954.3" y2="5356.6" stroke="rgba(229, 231, 235, 1)" stroke-width="2"></line><polygon points="-10954.3,5356.6 -10960.4,5342.9 -10959.0,5350.7 -10966.4,5347.7" fill="rgba(229, 231, 235, 1)" stroke="rgba(229, 231, 235, 1)"></polygon><line x1="-11614.9" y1="5033.0" x2="-11614.7" y2="5604.2" stroke="rgba(229, 231, 235, 1)" stroke-width="2"></line><polygon points="-11614.7,5604.2 -11610.8,5589.7 -11614.7,5596.7 -11618.6,5589.7" fill="rgba(229, 231, 235, 1)" stroke="rgba(229, 231, 235, 1)"></polygon><line x1="-11568.7" y1="5642.2" x2="-11320.9" y2="5642.2" stroke="rgba(229, 231, 235, 1)" stroke-width="2"></line><polygon points="-11320.9,5642.2 -11335.3,5638.3 -11328.4,5642.2 -11335.3,5646.1" fill="rgba(229, 231, 235, 1)" stroke="rgba(229, 231, 235, 1)"></polygon><line x1="-11568.7" y1="5642.4" x2="-11277.7" y2="5719.3" stroke="rgba(229, 231, 235, 1)" stroke-width="2"></line><polygon points="-11277.7,5719.3 -11290.2,5710.9 -11284.8,5716.9 -11292.7,5718.3" fill="rgba(229, 231, 235, 1)" stroke="rgba(229, 231, 235, 1)"></polygon><line x1="-11568.7" y1="5642.7" x2="-11276.1" y2="5823.0" stroke="rgba(229, 231, 235, 1)" stroke-width="2"></line><polygon points="-11276.1,5823.0 -11286.2,5811.9 -11282.4,5819.0 -11290.4,5818.5" fill="rgba(229, 231, 235, 1)" stroke="rgba(229, 231, 235, 1)"></polygon><line x1="-11165.7" y1="5860.2" x2="-10987.6" y2="5795.3" stroke="rgba(229, 231, 235, 1)" stroke-width="2"></line><polygon points="-10987.6,5795.3 -11002.6,5796.5 -10994.7,5797.8 -11000.0,5803.8" fill="rgba(229, 231, 235, 1)" stroke="rgba(229, 231, 235, 1)"></polygon><line x1="-11228.9" y1="5642.8" x2="-11063.6" y2="5756.2" stroke="rgba(229, 231, 235, 1)" stroke-width="2"></line><polygon points="-11063.6,5756.2 -11075.6,5747.2 -11070.5,5753.4 -11078.5,5754.4" fill="rgba(229, 231, 235, 1)" stroke="rgba(229, 231, 235, 1)"></polygon><line x1="-11614.9" y1="4833.0" x2="-11614.9" y2="4957.0" stroke="rgba(229, 231, 235, 1)" stroke-width="2"></line><polygon points="-11614.9,4957.0 -11611.0,4942.5 -11614.9,4949.5 -11618.8,4942.5" fill="rgba(229, 231, 235, 1)" stroke="rgba(229, 231, 235, 1)"></polygon><line x1="-11616.0" y1="4757.0" x2="-11975.4" y2="4513.8" stroke="rgba(229, 231, 235, 1)" stroke-width="2"></line><polygon points="-11975.4,4513.8 -11967.1,4526.3 -11969.8,4518.7 -11962.0,4520.4" fill="rgba(229, 231, 235, 1)" stroke="rgba(229, 231, 235, 1)"></polygon><line x1="-11978.3" y1="4437.8" x2="-13276.8" y2="3891.2" stroke="rgba(229, 231, 235, 1)" stroke-width="2"></line><polygon points="-13276.8,3891.2 -13265.4,3901.0 -13270.0,3894.4 -13262.0,3894.0" fill="rgba(229, 231, 235, 1)" stroke="rgba(229, 231, 235, 1)"></polygon><line x1="-11976.9" y1="4437.8" x2="-12271.8" y2="3891.2" stroke="rgba(229, 231, 235, 1)" stroke-width="2"></line><polygon points="-12271.8,3891.2 -12269.1,3906.0 -12268.6,3898.0 -12262.1,3902.6" fill="rgba(229, 231, 235, 1)" stroke="rgba(229, 231, 235, 1)"></polygon><line x1="-11975.9" y1="4437.8" x2="-11498.4" y2="3891.2" stroke="rgba(229, 231, 235, 1)" stroke-width="2"></line><polygon points="-11498.4,3891.2 -11510.3,3900.3 -11502.9,3897.2 -11504.1,3905.1" fill="rgba(229, 231, 235, 1)" stroke="rgba(229, 231, 235, 1)"></polygon><line x1="-11974.6" y1="4437.8" x2="-10566.3" y2="3891.2" stroke="rgba(229, 231, 235, 1)" stroke-width="2"></line><polygon points="-10566.3,3891.2 -10581.1,3893.5 -10573.1,3894.2 -10578.0,3900.6" fill="rgba(229, 231, 235, 1)" stroke="rgba(229, 231, 235, 1)"></polygon><line x1="-13345.9" y1="3853.6" x2="-13788.1" y2="3989.0" stroke="rgba(229, 231, 235, 1)" stroke-width="2"></line><polygon points="-13788.1,3989.0 -13773.1,3989.3 -13780.8,3987.2 -13774.9,3981.8" fill="rgba(229, 231, 235, 1)" stroke="rgba(229, 231, 235, 1)"></polygon><line x1="-13345.9" y1="3854.5" x2="-13848.6" y2="4319.6" stroke="rgba(229, 231, 235, 1)" stroke-width="2"></line><polygon points="-13848.6,4319.6 -13835.2,4312.9 -13843.0,4314.6 -13840.4,4307.1" fill="rgba(229, 231, 235, 1)" stroke="rgba(229, 231, 235, 1)"></polygon><line x1="-13345.9" y1="3856.0" x2="-13849.5" y2="4914.7" stroke="rgba(229, 231, 235, 1)" stroke-width="2"></line><polygon points="-13849.5,4914.7 -13839.4,4903.6 -13846.1,4908.0 -13846.3,4900.0" fill="rgba(229, 231, 235, 1)" stroke="rgba(229, 231, 235, 1)"></polygon><line x1="-13345.9" y1="3853.2" x2="-13772.2" y2="3853.2" stroke="rgba(229, 231, 235, 1)" stroke-width="2"></line><polygon points="-13772.2,3853.2 -13757.7,3857.1 -13764.7,3853.2 -13757.7,3849.3" fill="rgba(229, 231, 235, 1)" stroke="rgba(229, 231, 235, 1)"></polygon><line x1="-13345.9" y1="3852.8" x2="-13781.8" y2="3721.7" stroke="rgba(229, 231, 235, 1)" stroke-width="2"></line><polygon points="-13781.8,3721.7 -13768.5,3728.7 -13774.4,3723.4 -13766.8,3721.2" fill="rgba(229, 231, 235, 1)" stroke="rgba(229, 231, 235, 1)"></polygon><line x1="-13280.2" y1="3815.2" x2="-13739.0" y2="3596.6" stroke="rgba(229, 231, 235, 1)" stroke-width="2"></line><polygon points="-13739.0,3596.6 -13727.4,3606.1 -13732.2,3599.7 -13724.2,3599.0" fill="rgba(229, 231, 235, 1)" stroke="rgba(229, 231, 235, 1)"></polygon><line x1="-13279.7" y1="3815.2" x2="-13774.7" y2="3475.8" stroke="rgba(229, 231, 235, 1)" stroke-width="2"></line><polygon points="-13774.7,3475.8 -13764.7,3487.1 -13768.4,3480.0 -13760.4,3480.6" fill="rgba(229, 231, 235, 1)" stroke="rgba(229, 231, 235, 1)"></polygon><line x1="-12272.5" y1="3815.2" x2="-12538.2" y2="3120.0" stroke="rgba(229, 231, 235, 1)" stroke-width="2"></line><polygon points="-12538.2,3120.0 -12536.7,3134.9 -12535.5,3127.0 -12529.4,3132.1" fill="rgba(229, 231, 235, 1)" stroke="rgba(229, 231, 235, 1)"></polygon><line x1="-12272.3" y1="3815.2" x2="-12323.5" y2="3120.0" stroke="rgba(229, 231, 235, 1)" stroke-width="2"></line><polygon points="-12323.5,3120.0 -12326.4,3134.7 -12323.0,3127.5 -12318.7,3134.2" fill="rgba(229, 231, 235, 1)" stroke="rgba(229, 231, 235, 1)"></polygon><line x1="-12272.0" y1="3815.2" x2="-12059.5" y2="3120.0" stroke="rgba(229, 231, 235, 1)" stroke-width="2"></line><polygon points="-12059.5,3120.0 -12067.1,3132.9 -12061.5,3127.2 -12059.6,3135.0" fill="rgba(229, 231, 235, 1)" stroke="rgba(229, 231, 235, 1)"></polygon><line x1="-11498.2" y1="3815.2" x2="-11667.9" y2="3537.4" stroke="rgba(229, 231, 235, 1)" stroke-width="2"></line><polygon points="-11667.9,3537.4 -11662.3,3551.3 -11663.4,3543.4 -11656.1,3546.6" fill="rgba(229, 231, 235, 1)" stroke="rgba(229, 231, 235, 1)"></polygon><line x1="-10564.6" y1="3815.2" x2="-10869.2" y2="3120.0" stroke="rgba(229, 231, 235, 1)" stroke-width="2"></line><polygon points="-10869.2,3120.0 -10867.5,3134.9 -10866.5,3126.9 -10860.3,3132.0" fill="rgba(229, 231, 235, 1)" stroke="rgba(229, 231, 235, 1)"></polygon><line x1="-10564.4" y1="3815.2" x2="-10671.8" y2="3120.0" stroke="rgba(229, 231, 235, 1)" stroke-width="2"></line><polygon points="-10671.8,3120.0 -10673.6,3134.9 -10670.8,3127.4 -10666.0,3133.8" fill="rgba(229, 231, 235, 1)" stroke="rgba(229, 231, 235, 1)"></polygon><line x1="-10564.2" y1="3815.2" x2="-10449.7" y2="3120.0" stroke="rgba(229, 231, 235, 1)" stroke-width="2"></line><polygon points="-10449.7,3120.0 -10455.7,3133.7 -10450.8,3127.4 -10448.0,3134.9" fill="rgba(229, 231, 235, 1)" stroke="rgba(229, 231, 235, 1)"></polygon><line x1="-10563.9" y1="3815.2" x2="-10225.5" y2="3120.0" stroke="rgba(229, 231, 235, 1)" stroke-width="2"></line><polygon points="-10225.5,3120.0 -10234.9,3131.7 -10228.6,3126.8 -10227.8,3134.8" fill="rgba(229, 231, 235, 1)" stroke="rgba(229, 231, 235, 1)"></polygon><line x1="-13927.8" y1="4952.2" x2="-14547.2" y2="4755.7" stroke="rgba(229, 231, 235, 1)" stroke-width="2"></line><polygon points="-14547.2,4755.7 -14534.1,4763.0 -14539.9,4757.5 -14532.2,4755.5" fill="rgba(229, 231, 235, 1)" stroke="rgba(229, 231, 235, 1)"></polygon><line x1="-13927.8" y1="4952.5" x2="-14561.8" y2="4853.9" stroke="rgba(229, 231, 235, 1)" stroke-width="2"></line><polygon points="-14561.8,4853.9 -14547.9,4859.6 -14554.4,4854.9 -14547.0,4851.9" fill="rgba(229, 231, 235, 1)" stroke="rgba(229, 231, 235, 1)"></polygon><line x1="-13927.8" y1="4952.7" x2="-14582.5" y2="4952.7" stroke="rgba(229, 231, 235, 1)" stroke-width="2"></line><polygon points="-14582.5,4952.7 -14568.0,4956.6 -14575.0,4952.7 -14568.0,4948.8" fill="rgba(229, 231, 235, 1)" stroke="rgba(229, 231, 235, 1)"></polygon><line x1="-13927.8" y1="4952.9" x2="-14592.1" y2="5042.0" stroke="rgba(229, 231, 235, 1)" stroke-width="2"></line><polygon points="-14592.1,5042.0 -14577.2,5044.2 -14584.6,5041.2 -14578.1,5036.5" fill="rgba(229, 231, 235, 1)" stroke="rgba(229, 231, 235, 1)"></polygon><line x1="-13927.8" y1="4357.1" x2="-14547.2" y2="4175.1" stroke="rgba(229, 231, 235, 1)" stroke-width="2"></line><polygon points="-14547.2,4175.1 -14534.0,4182.1 -14539.9,4176.8 -14532.2,4174.6" fill="rgba(229, 231, 235, 1)" stroke="rgba(229, 231, 235, 1)"></polygon><line x1="-13927.8" y1="4357.3" x2="-14561.8" y2="4273.3" stroke="rgba(229, 231, 235, 1)" stroke-width="2"></line><polygon points="-14561.8,4273.3 -14547.8,4278.7 -14554.4,4274.1 -14547.0,4271.0" fill="rgba(229, 231, 235, 1)" stroke="rgba(229, 231, 235, 1)"></polygon><line x1="-13927.8" y1="4357.6" x2="-14582.5" y2="4357.6" stroke="rgba(229, 231, 235, 1)" stroke-width="2"></line><polygon points="-14582.5,4357.6 -14568.0,4361.4 -14575.0,4357.6 -14568.0,4353.7" fill="rgba(229, 231, 235, 1)" stroke="rgba(229, 231, 235, 1)"></polygon><line x1="-13927.8" y1="4357.8" x2="-14592.1" y2="4441.8" stroke="rgba(229, 231, 235, 1)" stroke-width="2"></line><polygon points="-14592.1,4441.8 -14577.2,4444.1 -14584.6,4441.0 -14578.1,4436.4" fill="rgba(229, 231, 235, 1)" stroke="rgba(229, 231, 235, 1)"></polygon><line x1="-13279.4" y1="3815.2" x2="-13806.2" y2="3353.1" stroke="rgba(229, 231, 235, 1)" stroke-width="2"></line><polygon points="-13806.2,3353.1 -13797.9,3365.5 -13800.6,3358.0 -13792.8,3359.7" fill="rgba(229, 231, 235, 1)" stroke="rgba(229, 231, 235, 1)"></polygon></svg>